<svg width="48" height="48" viewBox="0 0 48 48" fill="none" xmlns="http://www.w3.org/2000/svg">
<path d="M7.72752 32.9104C6.01162 26.0468 5.15368 22.615 6.95534 20.3076C8.757 18 12.2944 18 19.3692 18H28.6306C35.7054 18 39.2428 18 41.0444 20.3076C42.8462 22.615 41.9882 26.0468 40.2724 32.9104C39.181 37.2758 38.6352 39.4584 37.0078 40.7292C35.3802 42 33.1304 42 28.6306 42H19.3692C14.8695 42 12.6197 42 10.9921 40.7292C9.36454 39.4584 8.81886 37.2758 7.72752 32.9104Z" stroke="black" stroke-width="3"/>
<path d="M39 19L37.5792 13.7893C37.0314 11.7801 36.7574 10.7755 36.1956 10.0189C35.636 9.26546 34.8756 8.68468 34.0016 8.34304C33.1238 8 32.0826 8 30 8M9 19L10.4208 13.7893C10.9686 11.7801 11.2426 10.7755 11.8044 10.0189C12.364 9.26546 13.1243 8.68468 13.9984 8.34304C14.8762 8 15.9174 8 18 8" stroke="black" stroke-width="3"/>
<path d="M18 8C18 6.89544 18.8954 6 20 6H28C29.1046 6 30 6.89544 30 8C30 9.10456 29.1046 10 28 10H20C18.8954 10 18 9.10456 18 8Z" stroke="black" stroke-width="3"/>
</svg>
