<svg width="87" height="48" viewBox="0 0 87 48" fill="none" xmlns="http://www.w3.org/2000/svg">
<path d="M86.3932 17.0714C86.4022 17.0047 86.4022 16.9373 86.3932 16.8706C86.4017 16.8162 86.4017 16.7608 86.3932 16.7063L85.7531 12.014C85.6608 11.4527 85.4139 10.928 85.0401 10.4987L84.9303 10.3708L84.7293 10.17L73.6487 0.63948L73.9595 0.949885C73.7052 0.646072 73.386 0.403062 73.0253 0.238756C72.6646 0.0744485 72.2715 -0.00698004 71.8751 0.000476902H68.5107C67.9636 -0.0103466 67.429 0.163337 66.993 0.493442C66.5352 0.165325 65.9841 -0.00746975 65.4206 0.000476902H62.0561C61.6149 -0.00667157 61.1796 0.102678 60.7943 0.317485C60.409 0.532292 60.0874 0.844931 59.8621 1.22374C59.5145 1.76478 59.384 2.41666 59.4963 3.04951L59.9169 6.00725C59.6383 5.84954 59.3229 5.76772 59.0026 5.76992H42.7109C42.1264 5.77358 41.5554 5.94466 41.0653 6.26286C40.5914 6.55904 40.211 6.98315 39.9682 7.48612L38.7066 6.40892C38.21 5.95015 37.5546 5.70149 36.8781 5.71514H11.3161C10.7295 5.72581 10.1559 5.88944 9.65223 6.18984C8.96311 6.59258 8.45809 7.24744 8.24427 8.0156L0.125856 35.1283C-0.0258338 35.5751 -0.0407559 36.0569 0.0830008 36.5122C0.206757 36.9673 0.463588 37.3756 0.820683 37.6844C0.913731 37.7632 1.01143 37.8364 1.11324 37.9034C1.11324 37.9034 0.948656 37.7939 0.857232 37.7027L11.9378 47.2514C12.4065 47.6824 13.0194 47.9232 13.6565 47.9269H39.4197C40.0081 47.9117 40.582 47.7416 41.0836 47.434C41.3673 47.2792 41.6211 47.0752 41.8333 46.8314L41.9247 46.7036L42.071 46.5211L42.1807 46.3202L43.3875 47.361C43.8495 47.7748 44.449 48.0024 45.0697 48H70.8876C71.4754 47.9804 72.0483 47.8108 72.5516 47.507C72.8289 47.3428 73.0812 47.1398 73.3013 46.9045L73.3926 46.7767L73.5389 46.5942C73.6167 46.4786 73.6841 46.3565 73.74 46.2289C73.7998 46.1183 73.8488 46.0021 73.8863 45.8821L81.2916 21.1247V20.9056C81.3008 20.8206 81.3008 20.7349 81.2916 20.65V20.4857C81.3005 20.4312 81.3005 20.3758 81.2916 20.3213C81.2999 20.2058 81.2999 20.0899 81.2916 19.9744H83.6687C83.8755 19.9933 84.0835 19.9933 84.2903 19.9744H84.4549C84.5887 19.9345 84.7176 19.8793 84.8389 19.8101H85.0218L85.3509 19.5545L85.4971 19.4449L85.7531 19.1162V19.0068L85.936 18.6964C85.9258 18.636 85.9258 18.5742 85.936 18.5138C85.9263 18.4842 85.9263 18.4522 85.936 18.4225C85.9749 18.3155 86.0055 18.2056 86.0274 18.0938C86.0189 18.0578 86.0189 18.0203 86.0274 17.9843C86.0185 17.9299 86.0185 17.8744 86.0274 17.82C86.0274 17.82 86.3932 17.1079 86.3932 17.0714Z" fill="black"/>
<path d="M37.6275 7.79665C37.7246 7.8843 37.7924 7.99955 37.8218 8.12687C37.8513 8.25419 37.8409 8.38745 37.7921 8.5087L29.692 35.6031C29.59 35.8989 29.3813 36.1463 29.1069 36.297C28.8836 36.4461 28.6251 36.5342 28.3571 36.5526H2.61234C2.39247 36.542 2.18418 36.4511 2.02722 36.297C1.93385 36.2107 1.86832 36.0986 1.839 35.9751C1.80968 35.8515 1.81794 35.7221 1.86266 35.6031L9.98107 8.5087C10.0746 8.20915 10.2767 7.95523 10.5479 7.79665C10.7749 7.6582 11.0321 7.57675 11.2976 7.55929H37.0424C37.2605 7.56139 37.4697 7.64626 37.6275 7.79665ZM24.1882 30.1441L29.0337 13.9677H15.4665L10.6393 30.1441H24.1882ZM62.2021 8.0705C62.29 8.17243 62.3998 8.25326 62.5233 8.307C62.6467 8.36074 62.7807 8.386 62.9153 8.38088H66.2614C66.3888 8.38213 66.5143 8.35093 66.6264 8.29024C66.7384 8.22954 66.8329 8.14134 66.9013 8.03399C66.9607 7.95013 67.0027 7.8552 67.0247 7.75483C67.0467 7.65448 67.0482 7.55074 67.0293 7.44976L66.3711 2.62972C66.3084 2.40664 66.1959 2.20064 66.042 2.02721C65.9541 1.92528 65.8444 1.84445 65.7209 1.79071C65.5974 1.73698 65.4634 1.71173 65.3289 1.71683H61.9828C61.8553 1.71559 61.7297 1.74679 61.6177 1.80749C61.5058 1.86818 61.4111 1.95637 61.3428 2.06374C61.2148 2.31934 61.1599 2.48365 61.2148 2.62972L61.8913 7.44976C61.926 7.68445 62.035 7.90193 62.2021 8.0705ZM72.8256 2.5932C72.7629 2.37011 72.6503 2.16412 72.4965 1.99069C72.4123 1.88914 72.3058 1.80833 72.1853 1.7545C72.0648 1.70068 71.9335 1.67528 71.8017 1.68031H68.4372C68.3119 1.67675 68.188 1.70711 68.0785 1.76818C67.9691 1.82924 67.8783 1.91876 67.8156 2.02721C67.6939 2.18918 67.6413 2.39264 67.6693 2.5932L68.3458 7.41323C68.3883 7.64545 68.496 7.86078 68.6567 8.03399C68.7461 8.13392 68.8561 8.2134 68.9793 8.26697C69.1024 8.32054 69.2355 8.34694 69.3697 8.34436H72.7342C72.8592 8.34601 72.9823 8.31485 73.0914 8.25396C73.2006 8.19307 73.2918 8.10464 73.3559 7.99748C73.4195 7.9158 73.4639 7.8209 73.4861 7.71982C73.5083 7.61873 73.5075 7.51398 73.4838 7.41323L72.8256 2.5932ZM59.2583 9.89628L58.9291 7.52278H42.7107C42.456 7.53679 42.2097 7.61876 41.9975 7.76012C41.8629 7.83346 41.7457 7.9351 41.6541 8.05802C41.5627 8.18096 41.4989 8.32225 41.4674 8.47218L40.1143 13.0001C40.0602 13.1132 40.0418 13.2402 40.0613 13.364C40.081 13.4879 40.1376 13.6028 40.2239 13.6939C40.3781 13.8386 40.5794 13.923 40.7908 13.9313H60.5017L55.6563 30.1076H36.0002C35.7467 30.1134 35.4999 30.1892 35.2871 30.3266C35.0285 30.4907 34.8397 30.7442 34.7569 31.0387L33.3855 35.5667C33.3407 35.6828 33.329 35.8091 33.3515 35.9315C33.3742 36.054 33.4301 36.1677 33.5134 36.2604C33.6628 36.4148 33.8656 36.5063 34.0803 36.516H59.8983C60.1653 36.4931 60.4227 36.4053 60.6479 36.2604C60.9179 36.1089 61.1205 35.8611 61.2148 35.5667L68.6383 10.8092H60.2823C60.1497 10.8118 60.018 10.7872 59.8954 10.737C59.7728 10.6867 59.6618 10.6118 59.5692 10.517C59.418 10.3515 59.3111 10.1505 59.2583 9.9328V9.89628Z" fill="white"/>
</svg>
